<svg width="32" height="32" viewBox="0 0 32 32" fill="none" xmlns="http://www.w3.org/2000/svg">
<circle cx="16" cy="16" r="16" fill="#0032A1"/>
<path d="M15.5063 12.7665H14.7639H14.562H13.3093C12.7465 12.7665 12.2988 12.8693 11.8555 13.0048C11.3071 13.1724 10.8087 13.4582 10.4278 13.843C9.73896 14.5395 9.38477 15.5234 9.38477 16.7954V18.2559V20.3987V20.5682V20.826V22.8893V23.1471V25.7174C9.38477 25.8951 9.52589 25.9973 9.81532 25.9973H11.4231C11.7123 25.9973 12.0034 25.8951 12.0034 25.7174V23.1471V22.8893V20.826V20.5682V17.3704C12.0034 15.8063 12.5626 15.1342 13.9753 15.1342H14.7639H15.5063C15.7955 15.1342 16.0002 14.9378 16.0002 14.6112V13.2701C16.0002 12.9781 15.7955 12.7665 15.5063 12.7665Z" fill="white"/>
<path fill-rule="evenodd" clip-rule="evenodd" d="M22.6186 9.96814C22.6197 9.88081 22.6218 9.79571 22.6238 9.71258C22.6336 9.31012 22.6422 8.95376 22.5383 8.61264C22.3713 8.06409 21.9285 7.58698 21.544 7.20568C20.8482 6.51619 19.8646 6.16106 18.5926 6.15985L17.1321 6.15847L14.9892 6.15643L14.8197 6.15627L14.5619 6.15602L12.4986 6.15406L12.2409 6.15382L10.9254 6.15381C10.7477 6.15364 10.6454 6.29467 10.6451 6.58409L10.6436 8.19191C10.6433 8.48105 10.7452 8.77223 10.9229 8.7724L12.2384 8.77241L12.4962 8.77265L14.5595 8.77461L14.8172 8.77486L18.0151 8.77789C19.5792 8.77938 20.0012 9.2769 19.9999 10.6896V11.9203L20.0008 11.9217L20.0003 13.0164L20.0002 13.2742L19.9988 16.472C19.9981 18.0361 18.8176 18.7087 17.4049 18.708L16.6163 18.7077L15.8739 18.7073C15.5848 18.7072 15.38 18.9035 15.3799 19.2301L15.3792 20.5711C15.3791 20.8632 15.5837 21.0748 15.8728 21.075L16.6153 21.0753L16.8172 21.0754L18.6907 21.0753C19.2536 21.0755 19.7013 20.973 20.1447 20.8377C20.6931 20.6704 21.1916 20.3848 21.5727 20.0002C22.2619 19.304 22.6165 18.3202 22.6171 17.0482L22.6178 15.5877L22.6187 13.4448L22.6188 13.2754L22.6189 13.0176L22.6198 10.9543L22.62 10.6965L22.6186 9.96814Z" fill="white"/>
</svg>
