<svg width="32" height="32" viewBox="0 0 32 32" fill="none" xmlns="http://www.w3.org/2000/svg">
<mask id="mask0_370_1996" style="mask-type:alpha" maskUnits="userSpaceOnUse" x="0" y="0" width="32" height="32">
<circle cx="16" cy="16" r="16" fill="#D9D9D9"/>
</mask>
<g mask="url(#mask0_370_1996)">
<circle cx="16.1538" cy="16" r="16" fill="#0032A1"/>
<path d="M-2.06236 16.0562L-1.43112 16.6874L-1.25945 16.8591L13.027 31.1456C13.5056 31.6241 13.9736 31.9174 14.4658 32.1791C15.0745 32.5029 15.7412 32.6837 16.3922 32.6804C17.5701 32.6738 18.7078 32.1384 19.7892 31.057L21.031 29.8152L22.8529 27.9933L22.997 27.8492L23.2162 27.63L24.9705 25.8757L25.1897 25.6565L34.531 16.3152C34.6821 16.1641 34.6491 15.9572 34.403 15.7111L33.036 14.3441C32.7901 14.0982 32.4557 13.9377 32.3046 14.0888L22.9633 23.4301L22.7441 23.6493L20.9898 25.4036L20.7706 25.6228L18.0518 28.3416C16.7219 29.6715 15.6749 29.7675 14.4738 28.5664L0.581864 14.6744L-0.0493784 14.0432C-0.29522 13.7974 -0.636185 13.7903 -0.913862 14.068L-2.05404 15.2082C-2.30235 15.4565 -2.3082 15.8103 -2.06236 16.0562Z" fill="white"/>
<path d="M17.7973 20.0872C17.0036 20.0872 16.4412 19.818 16.1012 19.3231C16.079 19.2885 16.0529 19.2605 16.0329 19.2232C16.0329 19.2229 16.0326 19.2244 16.0324 19.2242C15.9307 19.0364 15.8429 18.8214 15.7935 18.5794C15.7369 18.3454 15.7006 18.0836 15.7006 17.7899V11.5028C15.7006 11.3322 15.8075 11.3561 15.9937 11.3561H19.0173C20.2366 11.3561 20.7775 11.8795 20.7775 13.145V18.0725C20.7775 18.5002 20.7402 18.8537 20.6014 19.1368C20.5132 19.3615 20.3993 19.5496 20.2414 19.6987C20.2334 19.7058 20.2306 19.7139 20.2223 19.7206C20.2142 19.7277 20.207 19.727 20.1989 19.734C19.9051 19.9628 19.5133 20.0872 19.0173 20.0872H17.7973ZM22.4075 10.059C21.7551 9.3748 20.8206 9.00006 19.6012 9.00006H19.3728H18.7758H18.3054H15.2055H14.2025H13.6817H13.605C13.317 9.00006 13.2307 9.21057 13.2307 9.50119V21.7161V25.3345C13.2307 25.6253 13.317 25.7693 13.605 25.7693H15.2055C15.4934 25.7693 15.7006 25.6253 15.7006 25.3345V21.7161V20.9187H15.7391C16.1457 21.6116 17.0011 22.166 18.3054 22.166H18.3821H19.3728H19.6012C20.8206 22.166 21.7551 21.8129 22.4075 21.1199C23.0592 20.427 23.3846 19.4413 23.3846 18.1748V13.0425C23.3846 11.7595 23.0592 10.7434 22.4075 10.059Z" fill="white"/>
<path d="M15.0447 4.92304H14.3022H14.1003H12.8477C12.2848 4.92304 11.8372 5.02582 11.3938 5.16133C10.8454 5.32888 10.3471 5.61466 9.96612 5.99947C9.27729 6.69596 8.9231 7.67991 8.9231 8.95188V10.4124V12.5552V12.7247V12.9825V15.0458V15.3036V17.8739C8.9231 18.0516 9.06422 18.1538 9.35365 18.1538H10.9615C11.2506 18.1538 11.5417 18.0516 11.5417 17.8739V15.3036V15.0458V12.9825V12.7247V9.52693C11.5417 7.96277 12.101 7.29065 13.5136 7.29065H14.3022H15.0447C15.3338 7.29065 15.5385 7.09428 15.5385 6.76769V5.42664C15.5385 5.13459 15.3338 4.92304 15.0447 4.92304Z" fill="white"/>
</g>
</svg>
