<svg width="400" height="200" viewBox="0 0 400 200" fill="none" xmlns="http://www.w3.org/2000/svg">
<path d="M2 2H398V198H2V2Z" fill="#EEEEEE" stroke="#2EC97D" stroke-width="4"/>
<path d="M59.9206 149.242H37.8316L85.2546 70.275L102.315 78.648L59.9206 149.242Z" fill="#E5A345"/>
<path d="M103.453 58.685L79.3896 67.72L107.709 82.434L103.453 58.685Z" fill="#E5A345"/>
<path d="M61.1056 99.44L62.6706 125.884L65.4366 142.79L68.0286 141.843L69.2806 128.054L68.8076 124.416L71.2066 99.292L61.1056 99.44Z" fill="#A85F48"/>
<path d="M67.9796 141.326L68.0736 142.333C68.1356 142.999 68.3936 143.632 68.8166 144.151L69.0116 144.39C69.2936 147.361 67.7216 146.354 65.5566 144.39L65.1766 139.327L67.9796 141.326Z" fill="#A85F48"/>
<path d="M69.0116 144.39C69.6556 145.107 70.1766 146.252 70.1766 148.039C63.7716 148.039 61.6056 149.387 57.3656 148.039C57.3656 147.154 58.2196 146.673 60.7046 146.673C63.0756 146.673 64.3376 145.547 65.5576 144.39C67.5526 145.992 68.8266 146.224 69.0116 144.39Z" fill="#F5803D"/>
<path d="M69.7096 149.072C63.4626 149.096 60.8476 149.593 57.8026 149.142C57.5526 149.105 57.3646 148.893 57.3646 148.64V148.039C60.6696 148.831 65.1936 148.039 70.1756 148.039V148.604C70.1756 148.861 69.9676 149.071 69.7096 149.072Z" fill="#331F1A"/>
<path d="M61.1056 99.3799L61.0346 114.994L62.1536 125.267C65.2546 125.898 67.0876 125.247 69.4486 124.418L70.1756 116.147L71.2066 99.2939L61.1056 99.3799Z" fill="#002A87"/>
<path d="M62.1536 125.266L64.9916 142.162C64.9916 142.162 67.4896 142.389 68.5106 142.162C68.5106 142.162 69.6076 128.993 69.6456 128.161C69.6836 127.329 69.4476 124.417 69.4476 124.417L65.4826 121.69L62.1536 125.266Z" fill="#002A87"/>
<path d="M66.4236 99.44L69.7616 124.047L70.5906 128.401L74.9816 141.843L77.5016 142.714L77.6106 128.921V123.86L77.9086 99.44H66.4236Z" fill="#A85F48"/>
<path d="M74.9486 141.426L75.1176 143.554L74.4546 145.146C74.3706 147.16 76.5836 145.838 78.0606 145.242C77.5546 144.512 77.4456 142.876 77.4846 140.903L74.9486 141.426Z" fill="#A85F48"/>
<path d="M74.4536 145.146C73.6066 146.445 74.2596 148.593 74.2596 148.593C79.2046 148.593 82.5306 149.57 82.5306 148.593C82.5306 147.868 82.4876 146.777 80.5056 146.777C79.0316 146.777 78.5756 144.493 77.2876 144.494C75.3636 144.494 75.2816 147.496 74.4536 145.146Z" fill="#F5803D"/>
<path d="M82.5306 149.339C82.1576 150.16 77.6456 149.256 74.5256 149.328C74.3546 149.332 74.2146 149.192 74.2146 149.021V148.512C75.7516 148.512 76.6736 148.404 78.1746 148.648C79.9116 148.93 82.0586 148.984 82.5296 148.512L82.5306 149.339Z" fill="#331F1A"/>
<path d="M66.4236 99.44L66.4396 107.955L67.9136 116.48L69.6466 125.891C74.4886 126.282 75.8916 126.206 78.0596 124.967L78.5016 112.13L77.9076 99.38L66.4236 99.44Z" fill="#0032A1"/>
<path d="M69.6466 125.89L70.4416 129.598L74.6416 142.502C74.6416 142.502 76.5196 142.918 78.0596 142.502V124.966L74.0196 121.992L69.6466 125.89Z" fill="#0032A1"/>
<path d="M52.1466 79.312C47.2856 77.83 47.8186 74.5769 50.1496 73.1379L63.3226 74.743C65.0816 75.04 66.7006 75.7979 67.3916 78.2339C67.7486 79.4909 67.6586 79.287 67.9336 80.534C68.1336 81.438 68.1246 81.8029 67.6786 82.2299C67.1146 82.7689 66.2666 83.0279 65.4156 82.9919C65.0106 82.9749 64.5496 82.919 64.0446 82.805L52.1466 79.312Z" fill="#F9E4D7"/>
<path d="M60.7726 80.1299C60.6906 80.6239 60.6346 81.264 60.5986 81.793L63.4556 82.632L61.6766 77.489C61.6766 77.489 60.9436 79.1079 60.7726 80.1299Z" fill="#F9D1B8"/>
<path d="M45.4266 66.258C44.0596 66.299 44.0836 67.145 43.4076 67.837L48.5816 78.17L51.7836 74.54L45.4266 66.258Z" fill="#A85F48"/>
<path d="M48.5046 78.3339L49.5176 79.1599C50.0466 79.4289 50.8466 79.5789 51.5396 78.9839C53.1496 77.4679 53.8666 76.108 53.6096 74.917C53.4826 74.099 53.2536 73.4379 52.7246 73.1689L51.6016 72.689C51.0726 72.42 50.6946 72.1019 50.4256 72.6299C50.3376 74.6909 49.6106 75.7559 48.5166 76.6379C48.1036 77.1899 47.9556 77.9329 48.5046 78.3339Z" fill="#FCF0E8"/>
<path d="M47.8236 73.489L47.0666 72.201C46.0886 70.538 45.5736 68.644 45.5736 66.715V65.291H42.0826V66.715C42.0826 68.644 41.5676 70.538 40.5896 72.201L39.8326 73.489H47.8236Z" fill="#E5A345"/>
<path d="M41.0656 73.489H47.8226L47.0656 72.201C46.0876 70.538 45.5726 68.644 45.5726 66.715V66.037H43.7196C43.2536 66.037 42.8766 66.414 42.8766 66.88V67.461C42.8766 69.39 42.3606 71.284 41.3836 72.947L41.0656 73.489Z" fill="#FFC269"/>
<path d="M45.7736 65.556H41.8836C41.4566 65.556 41.1106 65.21 41.1106 64.783V64.711C41.1106 64.284 41.4566 63.938 41.8836 63.938H45.7736C46.2006 63.938 46.5466 64.284 46.5466 64.711V64.783C46.5466 65.209 46.1996 65.556 45.7736 65.556Z" fill="#FFC269"/>
<path d="M48.2036 74.235H39.3686C38.9566 74.235 38.6236 73.901 38.6236 73.49C38.6236 73.079 38.9576 72.745 39.3686 72.745H48.2036C48.6156 72.745 48.9486 73.079 48.9486 73.49C48.9486 73.901 48.6156 74.235 48.2036 74.235Z" fill="#FFCD85"/>
<path d="M51.4776 62.031H49.4686C49.1866 62.031 48.9576 61.802 48.9576 61.52C48.9576 61.238 49.1866 61.009 49.4686 61.009H51.4776C52.1826 61.009 52.8166 60.617 53.1316 59.986L54.4136 57.417C54.6136 57.016 54.5926 56.549 54.3566 56.168C54.1206 55.787 53.7126 55.559 53.2646 55.559H51.7016C51.4196 55.559 51.1906 55.33 51.1906 55.048C51.1906 54.766 51.4196 54.537 51.7016 54.537H53.2646C54.0696 54.537 54.8026 54.946 55.2256 55.63C55.6486 56.314 55.6866 57.153 55.3276 57.872L54.0456 60.441C53.5566 61.422 52.5726 62.031 51.4776 62.031Z" fill="#FFCD85"/>
<path d="M51.3596 61.0089H49.4686C49.1866 61.0089 48.9576 61.2379 48.9576 61.5199C48.9576 61.8019 49.1866 62.0309 49.4686 62.0309H50.6006C50.8796 61.7109 51.1336 61.3699 51.3596 61.0089Z" fill="#E5A345"/>
<path d="M51.1906 55.049C51.1906 55.331 51.4196 55.56 51.7016 55.56H52.7146L52.8016 54.538H51.7016C51.4196 54.538 51.1906 54.767 51.1906 55.049Z" fill="#E5A345"/>
<path d="M38.1036 62.0309H36.0946C34.9996 62.0309 34.0156 61.423 33.5266 60.443L32.2446 57.874C31.8856 57.154 31.9236 56.316 32.3466 55.632C32.7696 54.948 33.5026 54.5389 34.3076 54.5389H35.8706C36.1526 54.5389 36.3816 54.768 36.3816 55.05C36.3816 55.332 36.1526 55.5609 35.8706 55.5609H34.3076C33.8596 55.5609 33.4516 55.788 33.2156 56.17C32.9796 56.551 32.9586 57.0179 33.1586 57.4189L34.4406 59.9879C34.7556 60.6189 35.3896 61.011 36.0946 61.011H38.1036C38.3856 61.011 38.6146 61.2399 38.6146 61.5219C38.6146 61.8019 38.3856 62.0309 38.1036 62.0309Z" fill="#FFCD85"/>
<path d="M35.8706 54.538H34.8546L34.9416 55.56H35.8706C36.1526 55.56 36.3816 55.331 36.3816 55.049C36.3816 54.767 36.1526 54.538 35.8706 54.538Z" fill="#E5A345"/>
<path d="M38.1036 61.0089H36.2966C36.5226 61.3699 36.7766 61.7109 37.0556 62.0309H38.1036C38.3856 62.0309 38.6146 61.8019 38.6146 61.5199C38.6146 61.2379 38.3856 61.0089 38.1036 61.0089Z" fill="#E5A345"/>
<path d="M35.2116 51.454L35.7196 57.444C36.0496 61.333 39.3026 64.321 43.2056 64.321H44.4506C48.3536 64.321 51.6066 61.332 51.9366 57.444L52.4446 51.454H35.2116Z" fill="#FFC269"/>
<path d="M49.5706 51.454L49.2186 55.598C48.8886 59.487 45.6356 62.475 41.7326 62.475H40.4876C39.5176 62.475 38.5886 62.29 37.7336 61.953C39.1086 63.414 41.0586 64.32 43.2056 64.32H44.4506C48.3536 64.32 51.6066 61.331 51.9366 57.443L52.4446 51.453H49.5706V51.454Z" fill="#FFCD85"/>
<path d="M52.3296 52.812L35.2426 51.823L35.4276 54.004L52.3296 52.812Z" fill="#E5A345"/>
<path d="M52.2766 52.816H35.3806C35.0236 52.816 34.7346 52.527 34.7346 52.17V51.646C34.7346 51.289 35.0236 51 35.3806 51H52.2766C52.6336 51 52.9226 51.289 52.9226 51.646V52.17C52.9226 52.527 52.6336 52.816 52.2766 52.816Z" fill="#FFCD85"/>
<path d="M43.7866 54.311L44.6236 56.89H47.3356L45.1416 58.483L45.9796 61.062L43.7866 59.468L41.5926 61.062L42.4306 58.483L40.2366 56.89H42.9486L43.7866 54.311Z" fill="#FFCD85"/>
<path d="M41.5926 61.062L42.1586 58.544L40.2366 56.89L42.4306 58.483L41.5926 61.062Z" fill="#E5A345"/>
<path d="M43.7866 54.311L42.6506 56.89H42.9486L43.7866 54.311Z" fill="#E5A345"/>
<path d="M47.3356 56.89L45.2136 58.705L45.1416 58.483L47.3356 56.89Z" fill="#E5A345"/>
<path d="M45.9796 61.062L43.6016 59.603L43.7866 59.468L45.9796 61.062Z" fill="#E5A345"/>
<path d="M42.6296 66.241C42.5746 65.782 42.2196 65.415 41.7626 65.353C41.3506 65.297 40.8666 65.259 40.5766 65.334C39.9996 65.483 40.5506 69.7379 40.8646 70.3499C41.1796 70.9619 42.5426 70.219 42.7786 69.931C42.9556 69.715 42.7756 67.458 42.6296 66.241Z" fill="#A85F48"/>
<path d="M60.9166 100.146C60.8456 94.301 62.3786 89.4899 62.3786 84.7039C61.2766 81.0259 60.7936 78.791 62.1046 76.623C62.3616 76.198 65.6666 73.752 65.6666 73.752C66.7476 75.159 68.7116 75.5329 70.2336 74.6209C71.9736 73.5789 73.9456 72.4019 74.0786 72.3459C78.5836 73.7959 81.2286 76.593 82.9646 78.81C82.9646 83.115 79.1256 85.4109 77.9076 88.5479C76.9036 95.4319 79.1396 96.75 78.5836 102.476C72.3916 103.082 67.6376 99.8719 63.2086 99.8759C62.4996 99.8769 61.6136 99.951 60.9166 100.146Z" fill="#F9E4D7"/>
<path d="M77.9086 88.5479C78.5816 86.9159 79.8996 85.407 80.9236 84.075L77.6156 83.1509C71.8396 85.1599 77.9136 97.1719 75.2536 102.462C76.4816 102.583 77.5806 102.577 78.5806 102.476C79.1106 96.153 77.0956 93.4989 77.9086 88.5479Z" fill="#F9D1B8"/>
<path d="M65.6406 100.146C66.8786 94.658 66.7056 90.305 66.5086 86.74C66.2976 82.921 66.7796 78.4549 68.5616 75.1129L67.9136 75.0779C66.0336 78.6029 65.5576 83.0019 65.7656 86.7809C65.9596 90.2979 66.1206 94.628 64.9056 100.015L65.6406 100.146Z" fill="#F9D1B8"/>
<path d="M64.6966 88.2509C67.7696 88.4329 70.1216 87.3519 72.3706 85.8719C70.3386 88.8819 67.7616 89.6569 64.6966 88.2509Z" fill="#F9D1B8"/>
<path d="M63.4566 85.3579C65.0206 86.5929 66.6726 86.8869 68.4186 86.9279C66.2186 87.7839 64.5616 87.2439 63.4566 85.3579Z" fill="#F9D1B8"/>
<path d="M64.6456 93.499C68.0936 91.656 70.3276 89.539 72.3146 87.257C71.0746 90.286 68.4926 92.368 64.6456 93.499Z" fill="#F9D1B8"/>
<path d="M90.2976 90.031L89.6526 91.732L86.2736 91.156L78.5296 84.883C77.4556 83.833 76.7276 82.458 77.5476 80.086C77.9706 78.862 77.9246 79.075 78.3986 77.898C78.9886 76.434 80.9096 76.178 81.9136 77.439L89.8106 87.062C90.4936 87.892 90.6796 89.025 90.2976 90.031Z" fill="#F9E4D7"/>
<path d="M71.0046 101.447L74.9366 100.672L75.6206 101.012C76.4776 101.438 77.5126 101.256 78.1716 100.562L80.7566 97.9C81.1336 97.503 81.2896 96.931 81.1216 96.41C80.7376 95.277 79.4586 95.011 78.6896 95.88L77.2526 97.231L73.3196 96.006L70.7336 98.532C70.2106 99.049 69.7896 99.813 70.0886 100.693C70.2856 101.273 70.4686 101.424 71.0046 101.447Z" fill="#A85F48"/>
<path d="M71.3796 101.547L74.9366 100.672L73.3206 96.007L70.6296 98.5919C70.0766 99.1389 69.7706 99.757 70.0426 100.558L70.2886 101.282C70.3676 101.514 70.7246 101.711 71.3796 101.547Z" fill="#BA6950"/>
<path d="M77.2526 97.232C77.3956 98.677 78.6036 98.712 79.5386 99.155L89.8036 91.504L86.4496 88.079L77.2526 97.232Z" fill="#A85F48"/>
<path d="M83.7626 90.931L89.3376 92.311C89.7546 92.38 90.1476 92.097 90.2166 91.681L90.4856 90.052C90.5546 89.635 90.7596 88.653 89.8026 88.529L84.4446 87.618C84.0276 87.549 83.6886 88.113 83.6206 88.529L83.2616 89.766C83.1916 90.183 83.3456 90.862 83.7626 90.931Z" fill="#FCF0E8"/>
<path d="M65.1216 72.626C64.9896 71.823 72.1686 70.016 73.9796 70.912C73.7766 72.138 72.7646 74.031 71.4126 74.426L65.8396 74.948L65.1216 72.626Z" fill="#F9D1B8"/>
<path d="M66.3696 74.898L66.9356 68.155L72.5016 68.84L73.5376 72.626L67.3906 76.787L66.3696 74.898Z" fill="#87402D"/>
<path d="M66.0996 73.748L65.1216 72.626L64.1436 75.072L64.9466 76.787L66.0996 73.748Z" fill="#FCF0E8"/>
<path d="M64.9466 76.787L66.0996 73.748L67.4696 76.367L70.2996 73.875L72.3446 77.117L70.2996 75.072L67.4336 77.117L66.1896 75.072L64.9466 76.787Z" fill="#F9D1B8"/>
<path d="M70.2996 73.875C72.3896 73.1 73.4756 71.981 73.9796 70.912L75.5326 72.626C75.1146 74.087 73.8416 75.37 72.3446 77.117L70.2996 73.875Z" fill="#FCF0E8"/>
<path d="M65.1926 64.128C65.1286 63.663 64.7006 63.338 64.2356 63.402C63.7706 63.466 63.4456 63.894 63.5096 64.359C63.5736 64.824 64.0016 65.149 64.4666 65.085C64.9316 65.021 65.2566 64.592 65.1926 64.128Z" fill="#331F1A"/>
<path d="M62.9396 63.464C63.0146 64.012 63.5196 64.396 64.0686 64.32C64.6166 64.245 65.0006 63.74 64.9246 63.191C64.8496 62.643 64.3436 62.259 63.7956 62.335C63.2476 62.411 62.8636 62.916 62.9396 63.464Z" fill="#331F1A"/>
<path d="M65.4846 65.204C65.4336 64.836 65.0945 64.578 64.7265 64.628C64.3585 64.679 64.1005 65.018 64.1505 65.386C64.2015 65.754 64.5406 66.012 64.9096 65.962C65.2776 65.912 65.5356 65.572 65.4846 65.204Z" fill="#331F1A"/>
<path d="M64.8206 61.722C64.4566 67.25 64.6876 72.098 67.4466 72.237C69.9156 72.362 72.8746 69.138 72.5646 68.594L72.4286 61.247L65.2536 60.885L64.8206 61.722Z" fill="#A85F48"/>
<path d="M72.4456 69.096C71.9976 70.298 71.5226 72.039 69.4166 72.683C67.0426 73.392 65.4796 72.672 65.2226 70.917L64.9726 69.056L65.3256 70.375C66.3536 73.009 70.8946 71.395 72.4456 69.096Z" fill="#331F1A"/>
<path d="M72.5206 60.246C72.6356 61.25 73.5426 61.971 74.5466 61.857C75.5506 61.743 76.2716 60.835 76.1576 59.831C76.0436 58.827 75.1356 58.106 74.1316 58.22C73.1276 58.334 72.4056 59.242 72.5206 60.246Z" fill="#331F1A"/>
<path d="M73.2036 59.0479C73.2616 59.5549 72.8976 60.0119 72.3906 60.0699C71.8836 60.1279 71.4266 59.764 71.3686 59.257C71.3106 58.75 71.6746 58.293 72.1816 58.235C72.6886 58.177 73.1466 58.5409 73.2036 59.0479Z" fill="#331F1A"/>
<path d="M72.9576 57.607C73.0456 58.378 72.4916 59.074 71.7206 59.162C70.9496 59.25 70.2536 58.696 70.1656 57.925C70.0776 57.154 70.6316 56.458 71.4026 56.37C72.1736 56.282 72.8696 56.836 72.9576 57.607Z" fill="#331F1A"/>
<path d="M70.4176 58.207C70.5096 59.016 69.9286 59.746 69.1206 59.839C68.3116 59.931 67.5816 59.35 67.4886 58.542C67.3966 57.733 67.9776 57.003 68.7856 56.91C69.5946 56.818 70.3256 57.399 70.4176 58.207Z" fill="#331F1A"/>
<path d="M68.6876 59.753C68.7576 60.363 68.3196 60.914 67.7096 60.983C67.0996 61.053 66.5486 60.615 66.4796 60.005C66.4096 59.395 66.8476 58.844 67.4576 58.775C68.0666 58.705 68.6176 59.143 68.6876 59.753Z" fill="#331F1A"/>
<path d="M66.8836 59.679C66.9356 60.137 66.6076 60.55 66.1496 60.602C65.6916 60.654 65.2786 60.326 65.2265 59.868C65.1745 59.41 65.5026 58.997 65.9606 58.945C66.4186 58.893 66.8316 59.222 66.8836 59.679Z" fill="#331F1A"/>
<path d="M68.2426 57.862C68.3386 58.7 67.7366 59.4559 66.8996 59.5519C66.0616 59.6479 65.3056 59.0459 65.2096 58.2079C65.1136 57.3699 65.7156 56.6139 66.5536 56.5179C67.3906 56.4229 68.1466 57.024 68.2426 57.862Z" fill="#331F1A"/>
<path d="M73.2486 59.49C73.9362 59.49 74.4936 58.9326 74.4936 58.245C74.4936 57.5574 73.9362 57 73.2486 57C72.561 57 72.0036 57.5574 72.0036 58.245C72.0036 58.9326 72.561 59.49 73.2486 59.49Z" fill="#331F1A"/>
<path d="M68.8086 56.907C68.8796 57.532 69.4446 57.981 70.0696 57.91C70.6946 57.839 71.1436 57.274 71.0726 56.649C71.0016 56.024 70.4366 55.575 69.8116 55.646C69.1866 55.717 68.7366 56.282 68.8086 56.907Z" fill="#331F1A"/>
<path d="M74.4406 62.065C74.5086 62.662 75.0476 63.09 75.6446 63.022C76.2416 62.954 76.6706 62.415 76.6016 61.818C76.5336 61.221 75.9946 60.792 75.3976 60.861C74.8016 60.929 74.3726 61.468 74.4406 62.065Z" fill="#331F1A"/>
<path d="M74.4976 63.488C74.4266 62.862 74.8756 62.297 75.5016 62.226C76.1276 62.155 76.6926 62.604 76.7636 63.23C76.8346 63.856 76.3856 64.421 75.7596 64.492C75.1336 64.563 74.5686 64.113 74.4976 63.488Z" fill="#331F1A"/>
<path d="M73.3996 64.633C73.3506 64.2 73.6606 63.809 74.0936 63.76C74.5266 63.711 74.9166 64.021 74.9666 64.454C75.0156 64.887 74.7056 65.277 74.2726 65.327C73.8406 65.376 73.4496 65.066 73.3996 64.633Z" fill="#331F1A"/>
<path d="M73.3666 65.913C73.3246 65.544 73.5896 65.21 73.9596 65.168C74.3296 65.126 74.6626 65.391 74.7046 65.761C74.7466 66.13 74.4816 66.464 74.1116 66.506C73.7416 66.548 73.4096 66.282 73.3666 65.913Z" fill="#331F1A"/>
<path d="M72.1826 62.955C72.688 62.955 73.0976 62.5453 73.0976 62.04C73.0976 61.5346 72.688 61.125 72.1826 61.125C71.6773 61.125 71.2676 61.5346 71.2676 62.04C71.2676 62.5453 71.6773 62.955 72.1826 62.955Z" fill="#331F1A"/>
<path d="M69.9866 62.191C70.4046 62.523 71.0126 62.454 71.3456 62.036C71.6776 61.618 71.6086 61.01 71.1906 60.677C70.7726 60.345 70.1646 60.414 69.8316 60.832C69.4996 61.25 69.5686 61.858 69.9866 62.191Z" fill="#331F1A"/>
<path d="M70.0076 60.767C70.0716 61.328 69.6686 61.835 69.1076 61.899C68.5466 61.963 68.0396 61.56 67.9756 60.999C67.9116 60.438 68.3146 59.931 68.8756 59.867C69.4366 59.803 69.9436 60.206 70.0076 60.767Z" fill="#331F1A"/>
<path d="M68.4096 60.95C68.4486 61.292 68.2026 61.601 67.8606 61.64C67.5186 61.679 67.2096 61.433 67.1706 61.091C67.1316 60.749 67.3776 60.44 67.7196 60.401C68.0616 60.362 68.3706 60.608 68.4096 60.95Z" fill="#331F1A"/>
<path d="M66.1776 60.849C66.2456 61.443 65.8186 61.979 65.2256 62.046C64.6326 62.113 64.0955 61.687 64.0285 61.094C63.9605 60.5 64.3876 59.964 64.9806 59.897C65.5736 59.83 66.1096 60.255 66.1776 60.849Z" fill="#331F1A"/>
<path d="M66.7966 59.665C66.8656 60.272 66.4306 60.819 65.8236 60.889C65.2166 60.958 64.6696 60.523 64.5996 59.916C64.5306 59.309 64.9656 58.762 65.5726 58.692C66.1796 58.623 66.7276 59.059 66.7966 59.665Z" fill="#331F1A"/>
<path d="M66.6736 57.58C66.7616 58.352 67.4586 58.906 68.2306 58.818C69.0026 58.73 69.5565 58.033 69.4685 57.261C69.3805 56.489 68.6836 55.935 67.9116 56.023C67.1396 56.111 66.5856 56.808 66.6736 57.58Z" fill="#331F1A"/>
<path d="M64.1806 63.188C64.6639 63.188 65.0556 62.7962 65.0556 62.313C65.0556 61.8297 64.6639 61.438 64.1806 61.438C63.6974 61.438 63.3056 61.8297 63.3056 62.313C63.3056 62.7962 63.6974 63.188 64.1806 63.188Z" fill="#331F1A"/>
<path d="M63.4396 60.082C63.5106 60.707 64.0746 61.155 64.6996 61.084C65.3246 61.013 65.7726 60.449 65.7016 59.824C65.6306 59.199 65.0666 58.751 64.4416 58.822C63.8176 58.893 63.3686 59.457 63.4396 60.082Z" fill="#331F1A"/>
<path d="M64.4356 61.951C64.4846 62.378 64.1776 62.763 63.7516 62.811C63.3246 62.86 62.9396 62.553 62.8916 62.127C62.8426 61.7 63.1496 61.315 63.5756 61.266C64.0016 61.218 64.3866 61.525 64.4356 61.951Z" fill="#331F1A"/>
<path d="M63.9796 61.8759C64.4684 61.8759 64.8646 61.4797 64.8646 60.991C64.8646 60.5022 64.4684 60.106 63.9796 60.106C63.4908 60.106 63.0946 60.5022 63.0946 60.991C63.0946 61.4797 63.4908 61.8759 63.9796 61.8759Z" fill="#331F1A"/>
<path d="M66.1086 58.5919C66.1726 59.1519 65.7706 59.658 65.2096 59.722C64.6486 59.786 64.1436 59.384 64.0796 58.823C64.0156 58.263 64.4176 57.757 64.9786 57.693C65.5386 57.629 66.0446 58.0319 66.1086 58.5919Z" fill="#331F1A"/>
<path d="M74.7756 66.117C75.3516 66.117 75.8186 65.65 75.8186 65.074C75.8186 64.498 75.3516 64.031 74.7756 64.031C74.1995 64.031 73.7326 64.498 73.7326 65.074C73.7326 65.65 74.1995 66.117 74.7756 66.117Z" fill="#331F1A"/>
<path d="M72.4936 66.711C72.9227 66.711 73.2706 66.3631 73.2706 65.934C73.2706 65.5049 72.9227 65.157 72.4936 65.157C72.0645 65.157 71.7166 65.5049 71.7166 65.934C71.7166 66.3631 72.0645 66.711 72.4936 66.711Z" fill="#331F1A"/>
<path d="M71.9656 65.619C72.5946 65.619 73.1046 65.109 73.1046 64.4799C73.1046 63.8509 72.5946 63.3409 71.9656 63.3409C71.3365 63.3409 70.8266 63.8509 70.8266 64.4799C70.8266 65.109 71.3365 65.619 71.9656 65.619Z" fill="#331F1A"/>
<path d="M70.8826 62.711C70.9346 63.166 71.3456 63.493 71.8006 63.441C72.2556 63.389 72.5826 62.978 72.5306 62.523C72.4786 62.068 72.0676 61.741 71.6126 61.793C71.1576 61.845 70.8306 62.256 70.8826 62.711Z" fill="#331F1A"/>
<path d="M67.9876 60.162C68.1036 61.179 69.3916 61.867 70.8636 61.699C72.3356 61.531 73.4356 60.57 73.3196 59.553C73.2036 58.536 71.9156 57.848 70.4436 58.016C68.9706 58.184 67.8716 59.145 67.9876 60.162Z" fill="#331F1A"/>
<path d="M75.5526 62.679C75.7626 64.522 75.0956 66.112 74.0616 66.23C73.0276 66.348 72.0196 64.949 71.8086 63.106C71.5986 61.263 72.2656 59.673 73.2996 59.555C74.3336 59.437 75.3426 60.836 75.5526 62.679Z" fill="#331F1A"/>
<path d="M65.0836 60.806C65.1616 61.491 65.8176 61.978 66.5486 61.895C67.2796 61.812 67.8086 61.189 67.7306 60.504C67.6526 59.819 66.9966 59.332 66.2656 59.415C65.5346 59.499 65.0056 60.122 65.0836 60.806Z" fill="#331F1A"/>
<path d="M73.3136 65.445C73.6506 65.462 73.9896 65.61 73.8916 66.772C73.8646 67.306 73.5556 67.785 73.2876 68.1C72.8976 68.557 73.1666 68.996 72.7696 68.976C72.2756 68.951 72.4046 67.817 72.4326 67.268C72.4326 67.268 72.3736 65.398 73.3136 65.445Z" fill="#A85F48"/>
<path d="M72.8616 68.18C72.7886 68.176 72.7316 68.114 72.7356 68.04C72.7456 67.842 72.8576 67.734 72.9476 67.647C73.0326 67.565 73.0816 67.513 73.0866 67.413C73.0896 67.356 73.0836 67.351 73.0046 67.312C72.9106 67.265 72.7546 67.187 72.7666 66.936C72.7906 66.47 72.8906 65.69 73.2996 65.711C73.7686 65.735 73.7406 66.283 73.7316 66.463C73.7276 66.536 73.6656 66.593 73.5926 66.589C73.5196 66.585 73.4626 66.523 73.4666 66.45C73.4896 65.987 73.3626 65.981 73.2866 65.977C73.2346 65.974 73.0696 66.209 73.0326 66.95C73.0286 67.027 73.0446 67.035 73.1236 67.074C73.2136 67.119 73.3646 67.194 73.3526 67.426C73.3416 67.636 73.2256 67.748 73.1326 67.838C73.0496 67.918 73.0056 67.964 73.0016 68.054C72.9976 68.127 72.9356 68.183 72.8616 68.18Z" fill="#87402D"/>
<path d="M67.4306 69.5139C68.8696 70.5709 69.6256 69.7649 70.0766 68.3999C70.1406 68.2059 69.9196 68.0569 69.7896 68.1719C69.0986 68.7839 68.3416 69.1529 67.4856 69.1539C67.3226 69.1539 67.2666 69.3929 67.4306 69.5139Z" fill="#EF6060"/>
<path d="M67.3366 69.366C68.4516 69.367 69.3866 69.0399 70.0616 68.2329C70.0616 68.2329 69.9436 68.016 69.7856 68.162C69.2386 68.669 68.4096 69.064 67.4836 69.149C67.2846 69.167 67.3366 69.366 67.3366 69.366Z" fill="white"/>
<path d="M67.2036 64.433C67.2036 65.052 67.3026 66.649 67.9686 65.982L69.1016 66.142L69.8106 65.084C69.1446 64.735 68.3696 64.457 67.2036 64.433Z" fill="#87402D"/>
<path d="M69.9666 64.8C69.1596 64.398 68.3236 64.151 67.4596 64.059C67.3556 64.048 67.2646 64.102 67.2506 64.182L67.2036 64.434C67.1856 64.53 67.2826 64.626 67.4086 64.632C68.1766 64.668 68.9816 64.834 69.8096 65.085C69.9296 65.121 70.0536 65.069 70.0716 64.973C70.0826 64.906 70.0416 64.837 69.9666 64.8Z" fill="#331F1A"/>
<path d="M67.3026 66.301C67.2896 66.439 67.6646 66.304 67.8696 66.262C68.3026 66.202 68.3776 66.213 68.6346 66.246C69.3016 66.356 69.3586 66.593 69.4916 66.504C69.6466 66.401 69.1026 65.955 68.1816 65.869C67.6496 65.82 67.3136 66.18 67.3026 66.301Z" fill="#331F1A"/>
<path d="M66.6035 64.344C66.6035 64.344 66.8465 65.529 66.7915 66.436C66.7775 66.666 66.6336 66.87 66.4176 66.951C65.7856 67.191 65.6956 68.074 66.7066 68.005C67.6356 67.934 68.0955 68.341 67.7575 68.379L66.3905 68.469C65.1985 68.593 65.3435 67.173 66.0025 66.714C66.2285 66.556 66.3205 66.266 66.2545 65.998C66.0685 65.25 65.7105 64.416 65.7105 64.416L66.6035 64.344Z" fill="#87402D"/>
<path d="M64.7006 64.4889C65.2746 64.1909 65.8626 64.0509 66.4626 64.0699C66.5346 64.0719 66.5945 64.1389 66.6015 64.2209L66.6226 64.4789C66.6306 64.5779 66.5596 64.6609 66.4726 64.6509C65.9416 64.5879 65.3796 64.6509 64.7966 64.7949C64.7126 64.8159 64.6296 64.748 64.6216 64.649C64.6156 64.581 64.6476 64.5169 64.7006 64.4889Z" fill="#331F1A"/>
<path d="M64.9336 66.28C64.9216 66.418 65.1866 66.275 65.3306 66.229C65.6346 66.159 65.6866 66.169 65.8656 66.197C66.3296 66.292 66.3636 66.527 66.4586 66.436C66.5696 66.33 66.1996 65.897 65.5576 65.831C65.1876 65.793 64.9446 66.159 64.9336 66.28Z" fill="#331F1A"/>
</svg>
