<svg height="30" width="100" viewBox="0 0 683.96667 227.98801" xmlns="http://www.w3.org/2000/svg" xmlns:xlink="http://www.w3.org/1999/xlink"><clipPath id="a"><path d="m0 170.991h512.975v-170.991h-512.975z"/></clipPath><g clip-path="url(#a)" fill="#0032a1" transform="matrix(1.3333333 0 0 -1.3333333 0 227.988)"><path d="m0 0v45.365c0 1.231-.68 1.852-2.037 1.852h-22.035c-8.889 0-13.334-4.57-13.334-13.701v-35.555c0-9.135 4.445-13.701 13.334-13.701h8.886c10.124 0 15.186 5.246 15.186 15.74m-19.443-31.479h-7.221c-9.139 0-16.203 2.53-21.203 7.592-5 5.061-7.498 12.096-7.498 21.11v37.032c0 9.134 2.498 16.202 7.498 21.202 5 4.998 12.064 7.499 21.203 7.499h41.477c2.22 0 3.332-1.051 3.332-3.148v-88.138c0-2.102-1.112-3.149-3.332-3.149h-11.667c-2.101 0-3.146 1.047-3.146 3.149v6.664h-.742c-2.961-6.543-9.196-9.813-18.701-9.813" transform="translate(230.6089 65.1621)"/><path d="m0 0v88.137c0 2.098.988 3.149 2.965 3.149h11.849c2.096 0 3.147-1.051 3.147-3.149v-88.137c0-1.236-.217-2.07-.647-2.502-.433-.434-1.205-.646-2.314-.646h-11.852c-2.101 0-3.148 1.046-3.148 3.148m0 107.024v16.85c0 1.974.988 2.963 2.965 2.963h12.035c1.973 0 2.961-.989 2.961-2.963v-16.85c0-2.101-.988-3.148-2.961-3.148h-12.035c-1.977 0-2.965 1.047-2.965 3.148" transform="translate(72.8667 36.4238)"/><path d="m0 0h-8.885c-1.238 0-2.07.213-2.502.647-.433.432-.648 1.205-.648 2.315v9.629c0 2.097 1.049 3.148 3.15 3.148h8.885c1.232 0 1.852.616 1.852 1.852v16.664c0 2.098 1.111 3.149 3.334 3.149h11.666c2.097 0 3.148-1.051 3.148-3.149v-16.664c0-1.236.676-1.852 2.035-1.852h17.223c2.221 0 3.33-1.051 3.33-3.148v-9.629c0-1.975-1.109-2.962-3.33-2.962h-17.223c-1.359 0-2.035-.619-2.035-1.852v-47.587c0-9.014 4.629-13.518 13.887-13.518h7.222c2.221 0 3.33-1.05 3.33-3.148v-9.629c0-1.974-1.109-2.961-3.33-2.961h-10c-9.136 0-16.296 2.467-21.478 7.406-5.186 4.936-7.779 11.911-7.779 20.924v48.513c0 1.233-.62 1.852-1.852 1.852" transform="translate(116.8525 111.9702)"/><path d="m0 0h11.293c8.889 0 13.33 4.504 13.33 13.518v35.922c0 9.008-4.441 13.517-13.33 13.517h-11.293c-4.695 0-8.088-1.082-10.186-3.241-2.101-2.161-3.15-5.588-3.15-10.276v-35.922c0-4.694 1.049-8.118 3.15-10.278 2.098-2.16 5.491-3.24 10.186-3.24m13.701-15.738h-16.295c-9.136 0-16.203 2.527-21.201 7.59-5 5.062-7.502 12.097-7.502 21.109v37.034c0 9.133 2.502 16.202 7.502 21.202 4.998 5 12.065 7.499 21.201 7.499h16.295c9.01 0 16.076-2.499 21.201-7.499 5.121-5 7.686-12.069 7.686-21.202v-37.034c0-9.012-2.565-16.047-7.686-21.109-5.125-5.063-12.191-7.59-21.201-7.59" transform="translate(382.1934 49.0137)"/><path d="m0 0h-34.07c-2.102 0-3.151 1.047-3.151 3.148v9.071c0 1.974 1.049 2.965 3.151 2.965h31.105c8.026 0 12.037 2.777 12.037 8.332v2.222c0 4.934-2.9 8.701-8.703 11.294l-20.183 9.63c-6.295 2.961-10.864 6.231-13.704 9.813-2.837 3.578-4.255 8.269-4.255 14.071 0 15.926 8.824 23.888 26.476 23.888h30.738c1.973 0 2.965-1.051 2.965-3.148v-9.073c0-2.101-.992-3.148-2.965-3.148h-27.035c-3.703 0-6.543-.648-8.517-1.943-1.975-1.297-2.961-2.995-2.961-5.093v-2.037c0-3.951 3.146-7.407 9.443-10.369l20.367-10.371c6.418-2.84 10.832-6.201 13.241-10.09 2.406-3.889 3.609-8.92 3.609-15.092 0-16.047-9.197-24.07-27.588-24.07" transform="translate(475.6689 33.2754)"/><path d="m0 0h-5.387-1.465-9.089c-4.084 0-7.332-.738-10.549-1.711-3.979-1.203-7.595-3.255-10.359-6.018-4.998-5.001-7.568-12.066-7.568-21.199v-10.487-15.386-1.217-1.851-14.815-1.851-18.455c0-1.276 1.024-2.01 3.124-2.01h11.666c2.098 0 4.21.734 4.21 2.01v18.455 1.851 14.815 1.851 22.961c0 11.231 4.058 16.057 14.308 16.057h5.722 5.387c2.098 0 3.583 1.41 3.583 3.755v9.629c0 2.097-1.485 3.616-3.583 3.616" transform="translate(55.314 128.5859)"/><path d="m0 0c-5.785 0-9.883 1.942-12.361 5.513-.162.25-.352.452-.498.721 0 .002-.002-.009-.004-.007-.741 1.355-1.381 2.906-1.741 4.652-.412 1.689-.677 3.578-.677 5.697v45.365c0 1.231.779 1.059 2.136 1.059h22.036c8.886 0 12.828-3.777 12.828-12.908v-35.555c0-3.086-.272-5.637-1.283-7.68-.643-1.621-1.473-2.978-2.624-4.054-.058-.051-.079-.11-.139-.158-.059-.051-.112-.046-.171-.097-2.141-1.651-4.996-2.548-8.611-2.548zm33.598 72.359c-4.754 4.937-11.565 7.641-20.452 7.641h-1.664-4.351-3.428-22.592-7.31-3.795-.559c-2.099 0-2.728-1.519-2.728-3.616v-88.138-26.109c0-2.098.629-3.137 2.728-3.137h11.664c2.098 0 3.608 1.039 3.608 3.137v26.109 5.754h.281c2.963-5 9.197-9 18.703-9h.559 7.22 1.664c8.887 0 15.698 2.548 20.452 7.548 4.75 5 7.121 12.112 7.121 21.251v37.032c0 9.258-2.371 16.59-7.121 21.528" transform="translate(296.1777 48.5859)"/></g></svg>
